<svg width="129" height="110" viewBox="0 0 129 110" fill="none" xmlns="http://www.w3.org/2000/svg">
<path d="M43.3706 28.6922C43.3708 24.9242 42.6324 21.193 41.198 17.7118C39.7635 14.2306 37.661 11.0675 35.0103 8.4031C32.3596 5.73873 29.2128 3.62531 25.7495 2.1835C22.2861 0.741683 18.5742 -0.000274259 14.8256 7.60477e-08H-79.4564C-87.0265 7.38072e-08 -94.2866 3.02276 -99.6395 8.40331C-104.992 13.7839 -108 21.0815 -108 28.6908V52.8516C-108 54.3342 -107.709 55.8022 -107.145 57.1719C-106.58 58.5415 -105.753 59.786 -104.71 60.8343C-103.667 61.8825 -102.429 62.714 -101.066 63.2813C-99.7033 63.8486 -98.2429 64.1405 -96.768 64.1404C-93.79 64.1409 -90.9342 65.3303 -88.8285 67.447C-86.7227 69.5637 -85.5394 72.4343 -85.5389 75.4277C-85.5389 84.5969 -81.9152 93.3905 -75.4651 99.874C-69.015 106.358 -60.2666 110 -51.1447 110H94.1709C103.408 110 112.267 106.312 118.799 99.7459C125.331 93.1804 129 84.2756 129 74.9905C129 65.7054 125.331 56.8005 118.799 50.235C112.267 43.6694 103.408 39.9809 94.1709 39.9809H54.5997C51.6215 39.9804 48.7655 38.7908 46.6597 36.6739C44.5539 34.5569 43.3708 31.6859 43.3706 28.6922Z" fill="white"/>
</svg>
