<svg width="167" height="24" viewBox="0 0 167 24" fill="none" xmlns="http://www.w3.org/2000/svg">
<g clip-path="url(#clip0_189_379)">
<path fill-rule="evenodd" clip-rule="evenodd" d="M8.17504 7.81936L8.14309 7.85026L0.00425827 3.09436V-0.000976562H3.60553L8.17504 7.81831V7.81936ZM4.24356 15.105L5.89136 13.4583L0.00533096 6.15667V5.23105L8.87377 10.4759L10.7389 8.61184L5.64531 9.61307e-05H6.73815L13.7138 5.62941L15.4181 3.92518L10.333 0.00541084H21.8761L18.7563 23.9948H10.1466C3.34245 23.9948 0 21.9923 0 16.6154V9.60029L4.2393 15.0997L4.24356 15.105Z" fill="white"/>
<path d="M43.0971 18.1278L41.6059 4.19561H41.5526L37.9759 18.1278H34.774L31.1972 4.19561H31.144L29.6528 18.1278H26.8237L29.0914 0.593262H32.5521L36.3952 15.2455H36.4484L40.2915 0.593262H43.7607L46.0284 18.1278H43.0971ZM59.3503 15.9655V18.1278H47.6059V0.593262H59.3492V2.75552H50.5415V7.75214H58.8156V9.81748H50.5415V15.9666L59.3503 15.9655ZM65.9957 18.1278H61.7256V0.593262H65.9979C69.4312 0.593262 72.0231 1.31792 73.7735 2.76724C74.6699 3.5535 75.3733 4.53556 75.8291 5.63736C76.285 6.73915 76.4811 7.9311 76.4023 9.12086C76.4023 15.1255 72.9327 18.1278 65.9936 18.1278H65.9957ZM66.262 2.75445H64.6643V15.9623H66.262C68.7715 15.9623 70.6224 15.418 71.8147 14.3295C73.0069 13.2409 73.6031 11.5036 73.6031 9.11766C73.6031 4.8741 71.1564 2.75232 66.2631 2.75232L66.262 2.75445ZM78.5113 18.1278V0.593262H81.7142V18.1278H78.5113ZM96.9533 18.1278L95.379 13.4677H88.1722L86.5979 18.1278H83.5548L90.228 0.593262H93.4309L100.103 18.1278H96.9533ZM91.8023 2.99304H91.749L88.8933 11.4003H94.659L91.8023 2.99304Z" fill="white"/>
<path d="M112.672 18.1278L106.372 7.36976H106.319V18.1278H101.968V0.593262H106.319L112.617 11.3513H112.671V0.593262H116.994V18.1278H112.672ZM133.902 15.9783C132.025 17.5232 129.669 18.3678 127.237 18.3678C124.806 18.3678 122.45 17.5232 120.572 15.9783C118.987 14.1377 118.115 11.7894 118.115 9.36051C118.115 6.9316 118.987 4.58335 120.572 2.74273C122.45 1.19789 124.806 0.353271 127.237 0.353271C129.669 0.353271 132.025 1.19789 133.902 2.74273C135.479 4.58741 136.345 6.93412 136.345 9.36051C136.345 11.7869 135.479 14.1336 133.902 15.9783ZM127.244 3.71522C124.255 3.71522 122.76 5.59698 122.761 9.36051C122.762 13.1241 124.256 15.0058 127.244 15.0058C130.215 15.0058 131.701 13.1241 131.701 9.36051C131.701 5.59698 130.215 3.71522 127.244 3.71522ZM146.326 18.1278H141.524L135.198 0.593262H140.032L143.875 14.2123H143.929L147.933 0.593262H152.63L146.331 18.1278H146.326ZM161.967 18.1278L160.902 14.3326H155.111L154.07 18.1278H149.345L155.67 0.593262H160.474L166.773 18.1278H161.967ZM158.044 4.12423H157.991L155.989 11.2341H160.02L158.044 4.12423Z" fill="white"/>
</g>
<defs>
<clipPath id="clip0_189_379">
<rect width="166.771" height="24" fill="white"/>
</clipPath>
</defs>
</svg>
