<svg width="27" height="37" viewBox="0 0 27 37" fill="none" xmlns="http://www.w3.org/2000/svg">
<path d="M26.4706 27.2016C26.0879 20.4801 17.5684 17.4248 16.753 17.1111C16.7197 17.0946 16.7197 17.0615 16.7364 17.0285L25.5222 8.2757V7.33436C25.5222 7.18573 25.389 7.05361 25.2393 7.05361H9.04879V1.78542V0.200012L3.07512 1.43861V2.33041H3.40791C3.40791 2.33041 4.87221 2.33041 4.87221 3.7837V7.0371H0.246354C0.163155 7.0371 0.0799561 7.11967 0.0799561 7.20225V9.26658H4.88885C4.88885 9.26658 4.88885 11.463 4.88885 14.0228V20.4801C4.88885 23.9977 7.1685 26.4419 11.162 26.1116C12.0107 26.0455 12.7927 25.7152 13.4583 25.2858C13.7578 25.0877 13.9409 24.7739 13.9409 24.4106V23.3041C12.643 24.1628 11.5448 24.1133 11.5448 24.1133C9.01551 24.1133 9.06543 20.926 9.06543 20.926V9.26658H20.7133L12.3268 17.6561C12.3102 18.7625 12.2935 19.6213 12.2935 19.6378C12.2935 19.6708 12.3102 19.6874 12.3435 19.6874C20.031 20.9755 22.111 25.9134 22.111 27.3502C22.111 27.3502 22.943 34.3359 15.9044 34.8148C15.9044 34.8148 11.2952 35.013 10.4798 33.1799C10.4465 33.1138 10.4798 33.0478 10.5464 33.0147C11.3118 32.6679 11.8276 31.9908 11.8276 31.0825C11.8276 29.7283 10.9956 28.6218 9.24847 28.6218C7.83409 28.6218 6.66931 29.7283 6.66931 31.0825C6.66931 31.0825 6.00371 36.9617 15.8877 36.7966C27.1695 36.5984 26.4706 27.2016 26.4706 27.2016Z" fill="black"/>
</svg>
