<svg width="14" height="14" viewBox="0 0 14 14" fill="black" xmlns="http://www.w3.org/2000/svg">
<path d="M8.06174 6.8986L13.2585 1.71008C13.4138 1.55476 13.5011 1.34408 13.5011 1.12442C13.5011 0.904749 13.4138 0.694078 13.2585 0.538749C13.1032 0.383421 12.8925 0.296158 12.6728 0.296158C12.4532 0.296158 12.2425 0.383421 12.0872 0.538749L6.89865 5.73551L1.71013 0.538749C1.5548 0.383421 1.34413 0.296158 1.12447 0.296158C0.904798 0.296158 0.694128 0.383421 0.538799 0.538749C0.38347 0.694078 0.296208 0.904749 0.296208 1.12442C0.296208 1.34408 0.38347 1.55476 0.538799 1.71008L5.73556 6.8986L0.538799 12.0871C0.461484 12.1638 0.400117 12.255 0.358239 12.3556C0.316361 12.4561 0.2948 12.5639 0.2948 12.6728C0.2948 12.7817 0.316361 12.8895 0.358239 12.99C0.400117 13.0905 0.461484 13.1818 0.538799 13.2585C0.615483 13.3358 0.706715 13.3971 0.807235 13.439C0.907755 13.4809 1.01557 13.5024 1.12447 13.5024C1.23336 13.5024 1.34118 13.4809 1.4417 13.439C1.54222 13.3971 1.63345 13.3358 1.71013 13.2585L6.89865 8.06169L12.0872 13.2585C12.1639 13.3358 12.2551 13.3971 12.3556 13.439C12.4561 13.4809 12.5639 13.5024 12.6728 13.5024C12.7817 13.5024 12.8895 13.4809 12.9901 13.439C13.0906 13.3971 13.1818 13.3358 13.2585 13.2585C13.3358 13.1818 13.3972 13.0905 13.4391 12.99C13.4809 12.8895 13.5025 12.7817 13.5025 12.6728C13.5025 12.5639 13.4809 12.4561 13.4391 12.3556C13.3972 12.255 13.3358 12.1638 13.2585 12.0871L8.06174 6.8986Z" fill="white"/>
</svg>
